<svg xmlns="http://www.w3.org/2000/svg" width="45" height="50" viewBox="0 0 765 658" version="1.1">
  <path d="M 663.660 0.984 C 644.279 4.493, 627.077 13.679, 614.289 27.350 C 603.436 38.952, 596.942 50.506, 592.847 65.500 C 589.673 77.121, 589.659 97.177, 592.818 108.876 C 594.062 113.483, 595.793 118.633, 596.665 120.320 C 598.196 123.280, 598.164 123.460, 595.755 125.444 C 594.382 126.575, 575.763 142.556, 554.379 160.957 C 532.996 179.358, 498.175 209.269, 477 227.426 C 455.825 245.583, 438.222 260.833, 437.883 261.313 C 437.544 261.794, 435.069 260.622, 432.383 258.708 C 417.878 248.373, 392.237 240.019, 374.972 240.004 L 370.444 240 363.636 211.301 L 356.827 182.601 359.664 180.567 C 390.144 158.711, 399.543 116.315, 381.269 83.115 C 367.007 57.202, 335.893 41.239, 307.117 45.071 C 272.210 49.720, 246.574 74.758, 241.415 109.240 C 236.624 141.269, 253.166 172.561, 282.500 186.957 C 290.532 190.899, 300.586 194, 305.335 194 C 306.736 194, 308.246 194.563, 308.691 195.250 C 309.136 195.938, 312.494 208.875, 316.153 224 C 322.028 248.288, 322.622 251.617, 321.238 252.500 C 308.218 260.809, 301.237 266.059, 295.107 272.152 C 277.267 289.883, 266.469 311.748, 263.480 336.194 C 262.853 341.318, 262.519 341.940, 260.142 342.405 C 258.689 342.689, 244 344.975, 227.500 347.485 C 177.178 355.141, 171.579 356.010, 169.343 356.509 C 167.564 356.907, 166.623 355.985, 163.970 351.246 C 147.651 322.089, 116.048 304.553, 83 306.316 C 45.118 308.336, 12.877 334.203, 2.796 370.663 C -0.064 381.006, -0.411 405.222, 2.168 414.500 C 4.857 424.174, 7.767 431.253, 11.761 437.837 C 23.490 457.172, 39.562 470.017, 61 477.190 C 70.042 480.215, 71.271 480.371, 86.500 480.434 C 100.379 480.491, 103.561 480.193, 110.500 478.186 C 120.174 475.387, 132.673 469.271, 139.485 464.002 C 158.814 449.051, 167.784 434.017, 174.502 405.310 C 174.574 405.001, 191.192 402.360, 230 396.490 C 250.075 393.453, 267.309 390.787, 268.299 390.565 C 269.685 390.254, 270.779 391.651, 273.077 396.669 C 279.563 410.829, 292.796 427.122, 305.907 437.087 C 315.253 444.191, 332.583 452.496, 344.500 455.581 C 351.694 457.444, 358.147 458.319, 367.500 458.700 C 387.594 459.518, 401.976 456.456, 420.932 447.322 L 430.365 442.778 472.181 484.755 L 513.996 526.731 510.917 533.522 C 502.063 553.049, 500.852 576.454, 507.637 596.899 C 516.706 624.226, 538.358 645.085, 566.500 653.608 C 574.526 656.038, 577.123 656.339, 590.500 656.384 C 602.030 656.422, 607.003 656.016, 611.998 654.626 C 632.543 648.907, 649.798 637.217, 661.187 621.302 C 672.907 604.924, 677.051 592.707, 677.753 572.468 C 678.174 560.311, 677.944 557.238, 676.035 549.468 C 665.855 508.048, 629.108 480.303, 587.058 482.286 C 574.872 482.861, 567.532 484.435, 557.561 488.612 C 554.228 490.009, 550.815 491.368, 549.979 491.632 C 548.974 491.950, 534.309 477.877, 506.800 450.194 L 465.142 408.274 469.640 399.610 C 478.279 382.969, 482 367.727, 482 348.979 C 482 333.256, 478.464 317.141, 472.144 304.062 C 470.965 301.621, 470 299.325, 470 298.958 C 470 298.359, 478.063 291.247, 504 268.967 C 559.151 221.592, 598.476 187.844, 612.714 175.670 L 630.058 160.840 639.279 165.323 C 653.345 172.162, 662.839 174.329, 678.500 174.274 C 688.484 174.239, 693.356 173.734, 699.500 172.098 C 730.899 163.738, 755.099 139.528, 762.984 108.590 C 765.564 98.466, 765.752 79.223, 763.373 68.697 C 759.611 52.049, 750.834 36.746, 738.229 24.855 C 726.141 13.452, 714.547 6.887, 699.500 2.926 C 690.545 0.568, 671.619 -0.457, 663.660 0.984" stroke="none" fill="#0553cb" fill-rule="evenodd" />
</svg>